<svg viewBox="0.15 0 91.228 78.221" xmlns="http://www.w3.org/2000/svg">
  <defs></defs>
  <path style="fill: #a35d17;" d="M 16.713 67.205 C 14.887 68.947 12.017 68.943 10.32 67.196 C 8.493 65.449 8.493 62.707 10.32 61.088 L 42.938 29.969 C 44.764 28.227 47.634 28.231 49.331 29.977 C 51.157 31.725 51.157 34.467 49.331 36.086 L 16.713 67.205 Z"></path>
  <path style="fill: #6b400c;" d="M 49.331 29.977 C 51.157 31.725 51.157 34.467 49.331 36.086 L 16.713 67.205 C 14.887 68.947 12.017 68.943 10.32 67.196"></path>
  <path style="fill: #7594ab;" d="M 15.8 74.931 C 13.712 76.923 10.451 76.919 8.363 74.922 L 2.231 69.056 C 0.143 67.059 0.143 63.942 2.231 61.95 C 4.319 59.959 7.58 59.964 9.668 61.961 L 15.8 67.827 C 17.887 69.824 17.887 72.94 15.8 74.931 Z"></path>
  <path style="fill: #7594ab;" d="M 9.668 61.961 L 15.8 67.827 C 17.887 69.824 17.887 72.94 15.8 74.931 C 13.712 76.923 10.451 76.919 8.363 74.922"></path>
  <path style="fill: #7594ab;" d="M 70.337 41.597 C 64.857 46.825 58.986 43.95 53.506 38.708 L 40.068 25.852 C 34.588 20.61 31.718 14.997 37.067 9.769 L 39.415 7.528 C 44.895 2.3 50.766 5.174 56.246 10.417 L 69.684 23.273 C 75.164 28.515 78.035 34.128 72.685 39.357 L 70.337 41.597 Z"></path>
  <g transform="matrix(0.163088, 0.000212, 0, 0.155808, 0.665406, -0.125065)" style="">
    <path style="fill:#216595;" d="M340.8,68l82.4,82.4c33.6,33.6,51.2,69.6,18.4,103.2L427.2,268c-33.6,33.6-69.6,15.2-103.2-18.4"></path>
  </g>
  <path style="fill: #7594ab;" d="M 34.197 18.864 C 33.152 19.86 31.456 19.858 30.412 18.859 C 29.369 17.861 29.369 16.24 30.412 15.245 L 45.026 1.179 C 46.069 0.183 47.765 0.185 48.809 1.183 C 49.853 2.182 49.853 3.802 48.809 4.798 L 34.197 18.864 Z"></path>
  <path style="fill: #7594ab;" d="M 48.809 1.183 C 49.853 2.182 49.853 3.802 48.809 4.798 L 34.197 18.864 C 33.152 19.86 31.456 19.858 30.412 18.859"></path>
  <path style="fill: #7594ab;" d="M 64.726 48.071 C 63.682 49.067 61.987 49.064 60.942 48.066 C 59.899 47.067 59.899 45.448 60.942 44.451 L 75.556 30.51 C 76.599 29.514 78.295 29.516 79.339 30.515 C 80.383 31.514 80.383 33.134 79.339 34.129 L 64.726 48.071 Z"></path>
  <g transform="matrix(0.163088, 0.000212, 0, 0.155808, 0.665406, -0.125065)" style="">
    <path style="fill:#216595;" d="M483.2,196L483.2,196c6.4,6.4,6.4,16.8,0,23.2l-90.4,89.6c-6.4,6.4-16.8,6.4-23.2,0l0,0"></path>
    <path style="fill:#216595;" d="M309.6,253.6c-5.6,5.6-15.2,5.6-20.8,0l-50.4-50.4c-5.6-5.6-5.6-15.2,0-20.8l0,0   c5.6-5.6,15.2-5.6,20.8,0l50.4,50.4C315.2,238.4,315.2,248,309.6,253.6L309.6,253.6z"></path>
  </g>
  <rect x="-47.235" y="100.676" style="fill: rgb(244, 173, 49);" width="27.399" height="10.892" transform="matrix(0.999999, 0.001296, 0, 1.000001, 109.373016, -38.11211)"></rect>
  <g transform="matrix(0.163088, 0.000212, 0, 0.151277, 9.68857, 0.834888)" style="">
    <polyline style="fill: rgb(221, 130, 8);" points="321.6,407.2 489.6,407.2 489.6,479.2  "></polyline>
    <path style="fill: rgb(221, 130, 8);" d="M497.6,488.8c0,3.2-2.4,6.4-6.4,6.4H320c-3.2,0-6.4-2.4-6.4-6.4v-4c0-3.2,2.4-6.4,6.4-6.4h172   c3.2,0,6.4,2.4,6.4,6.4v4H497.6z"></path>
    <path style="fill: rgb(244, 173, 49);" d="M497.6,400.8c0,3.2-2.4,6.4-6.4,6.4H320c-3.2,0-6.4-2.4-6.4-6.4v-4c0-3.2,2.4-6.4,6.4-6.4h172   c3.2,0,6.4,2.4,6.4,6.4v4H497.6z"></path>
  </g>
</svg>